{"accessors":[{"bufferView":1,"componentType":5126,"count":1200,"max":[10.201499938964844,-15.100000381469727,-22.5],"min":[-30.201499938964844,-49.81439971923828,-47.83720016479492],"type":"VEC3"},{"bufferView":1,"byteOffset":14400,"componentType":5126,"count":1200,"max":[0.9999918341636658,1,0.990409255027771],"min":[-0.961999773979187,-1,-1],"type":"VEC3"},{"bufferView":0,"componentType":5125,"count":3519,"type":"SCALAR"},{"bufferView":1,"byteOffset":28800,"componentType":5126,"count":2064,"max":[8.232000350952148,-14.25,-25.633399963378906],"min":[-30.236000061035156,-53.87220001220703,-48.44409942626953],"type":"VEC3"},{"bufferView":1,"byteOffset":53568,"componentType":5126,"count":2064,"max":[0.9999999403953552,1,1],"min":[-1,-1,-1],"type":"VEC3"},{"bufferView":0,"byteOffset":14076,"componentType":5125,"count":6300,"type":"SCALAR"},{"bufferView":1,"byteOffset":78336,"componentType":5126,"count":594,"max":[-3.8861000537872314,-59.52799987792969,-55.031700134277344],"min":[-16.11389923095703,-69.956298828125,-59],"type":"VEC3"},{"bufferView":1,"byteOffset":85464,"componentType":5126,"count":594,"max":[0.8962613344192505,1,0],"min":[-0.8977001309394836,-0.8829490542411804,-1],"type":"VEC3"},{"bufferView":0,"byteOffset":39276,"componentType":5125,"count":2622,"type":"SCALAR"},{"bufferView":1,"byteOffset":92592,"componentType":5126,"count":160,"max":[-2.001699924468994,-53.39799880981445,-51.57099914550781],"min":[-18.096500396728516,-59.52799987792969,-55.10279846191406],"type":"VEC3"},{"bufferView":1,"byteOffset":94512,"componentType":5126,"count":160,"max":[0.4181618094444275,0.7037480473518372,-0.7037480473518372],"min":[-0.41881999373435974,0.33260250091552734,-0.9416214227676392],"type":"VEC3"},{"bufferView":0,"byteOffset":49764,"componentType":5125,"count":525,"type":"SCALAR"},{"bufferView":1,"byteOffset":96432,"componentType":5126,"count":678,"max":[4.905600070953369,-59.39720153808594,-50.2067985534668],"min":[-24.90559959411621,-69.69010162353516,-56],"type":"VEC3"},{"bufferView":1,"byteOffset":104568,"componentType":5126,"count":678,"max":[0.9275221824645996,0.8219947218894958,-0.35681235790252686],"min":[-0.9275636076927185,-0.6798149347305298,-0.9987263679504395],"type":"VEC3"},{"bufferView":0,"byteOffset":51864,"componentType":5125,"count":2868,"type":"SCALAR"},{"bufferView":1,"byteOffset":112704,"componentType":5126,"count":123,"max":[-7.2179999351501465,-30.700000762939453,-46.81650161743164],"min":[-12.782999992370605,-34.900001525878906,-47.75400161743164],"type":"VEC3"},{"bufferView":1,"byteOffset":114180,"componentType":5126,"count":123,"max":[1,1,0],"min":[-1,-1,-1],"type":"VEC3"},{"bufferView":0,"byteOffset":63336,"componentType":5125,"count":315,"type":"SCALAR"},{"bufferView":1,"byteOffset":115656,"componentType":5126,"count":2607,"max":[10,-48.37699890136719,-17],"min":[-30,-83.9000015258789,-56.271400451660156],"type":"VEC3"},{"bufferView":1,"byteOffset":146940,"componentType":5126,"count":2607,"max":[1,1,1],"min":[-1,-1,-0.976931095123291],"type":"VEC3"},{"bufferView":0,"byteOffset":64596,"componentType":5125,"count":10398,"type":"SCALAR"},{"bufferView":1,"byteOffset":178224,"componentType":5126,"count":6248,"max":[15.180000305175781,0,-26.440000534057617],"min":[-39.00899887084961,-61.88399887084961,-49.20000076293945],"type":"VEC3"},{"bufferView":1,"byteOffset":253200,"componentType":5126,"count":6248,"max":[1,1,1],"min":[-1,-1,-1],"type":"VEC3"},{"bufferView":0,"byteOffset":106188,"componentType":5125,"count":26418,"type":"SCALAR"},{"bufferView":1,"byteOffset":328176,"componentType":5126,"count":1706,"max":[-2.497499942779541,-38.189998626708984,-47.032100677490234],"min":[-17.502500534057617,-77.99099731445312,-55.99919891357422],"type":"VEC3"},{"bufferView":1,"byteOffset":348648,"componentType":5126,"count":1706,"max":[1,0.9999999403953552,0.0028639102820307016],"min":[-1,-1,-1],"type":"VEC3"},{"bufferView":0,"byteOffset":211860,"componentType":5125,"count":5079,"type":"SCALAR"}],"asset":{"extras":{"author":"Zero65 (https://sketchfab.com/zero65)","license":"CC-BY-4.0 (http://creativecommons.org/licenses/by/4.0/)","source":"https://sketchfab.com/3d-models/anpanman-d209b9eaa65148d593df135531edc679","title":"Anpanman"},"generator":"Sketchfab-12.68.0","version":"2.0"},"bufferViews":[{"buffer":0,"byteLength":232176,"name":"floatBufferViews","target":34963},{"buffer":0,"byteLength":369120,"byteOffset":232176,"byteStride":12,"name":"floatBufferViews","target":34962}],"buffers":[{"byteLength":601296,"uri":"data:application/octet-stream;base64,"}],"materials":[{"doubleSided":true,"name":"color_11107152","pbrMetallicRoughness":{"baseColorFactor":[0.7241664348743744,0.5224639553057431,0.3351170504205914,1],"metallicFactor":0}},{"doubleSided":true,"name":"color_15277357","pbrMetallicRoughness":{"baseColorFactor":[0.913725,0.113725,0.176471,1],"metallicFactor":0}},{"doubleSided":true,"name":"color_15290141","pbrMetallicRoughness":{"baseColorFactor":[0.913725,0.309804,0.113725,1],"metallicFactor":0}},{"doubleSided":true,"name":"color_15308428","pbrMetallicRoughness":{"baseColorFactor":[0.913725,0.588235,0.54902,1],"metallicFactor":0}},{"doubleSided":true,"name":"color_16089887","pbrMetallicRoughness":{"baseColorFactor":[0.960784,0.513726,0.121569,1],"metallicFactor":0}},{"doubleSided":true,"name":"color_16448250","pbrMetallicRoughness":{"baseColorFactor":[0.980392,0.980392,0.980392,1],"metallicFactor":0}},{"doubleSided":true,"name":"color_16766371","pbrMetallicRoughness":{"baseColorFactor":[1,0.835294,0.639216,1],"metallicFactor":0}},{"doubleSided":true,"name":"color_16768282","pbrMetallicRoughness":{"baseColorFactor":[1,0.866667,0.101961,1],"metallicFactor":0}},{"doubleSided":true,"name":"color_2829873","pbrMetallicRoughness":{"baseColorFactor":[0.168627,0.180392,0.192157,1],"metallicFactor":0}}],"meshes":[{"name":"Object_0","primitives":[{"attributes":{"NORMAL":1,"POSITION":0},"indices":2,"material":0,"mode":4}]},{"name":"Object_1","primitives":[{"attributes":{"NORMAL":4,"POSITION":3},"indices":5,"material":1,"mode":4}]},{"name":"Object_2","primitives":[{"attributes":{"NORMAL":7,"POSITION":6},"indices":8,"material":2,"mode":4}]},{"name":"Object_3","primitives":[{"attributes":{"NORMAL":10,"POSITION":9},"indices":11,"material":3,"mode":4}]},{"name":"Object_4","primitives":[{"attributes":{"NORMAL":13,"POSITION":12},"indices":14,"material":4,"mode":4}]},{"name":"Object_5","primitives":[{"attributes":{"NORMAL":16,"POSITION":15},"indices":17,"material":5,"mode":4}]},{"name":"Object_6","primitives":[{"attributes":{"NORMAL":19,"POSITION":18},"indices":20,"material":6,"mode":4}]},{"name":"Object_7","primitives":[{"attributes":{"NORMAL":22,"POSITION":21},"indices":23,"material":7,"mode":4}]},{"name":"Object_8","primitives":[{"attributes":{"NORMAL":25,"POSITION":24},"indices":26,"material":8,"mode":4}]}],"nodes":[{"children":[1],"matrix":[1,2.8327693431939995e-16,-2.2204460492503123e-16,0,2.832769343193999e-16,-1,-4.440892098500626e-16,0,-2.220446049250313e-16,4.440892098500626e-16,-1,0,3.552713678800501e-15,-79.9499282836914,3.9500226974487127,1],"name":"Sketchfab_model"},{"children":[2,3,4,5,6,7,8,9,10],"name":"tinker.obj.cleaner.materialmerger.gles"},{"mesh":0,"name":"Object_2"},{"mesh":1,"name":"Object_3"},{"mesh":2,"name":"Object_4"},{"mesh":3,"name":"Object_5"},{"mesh":4,"name":"Object_6"},{"mesh":5,"name":"Object_7"},{"mesh":6,"name":"Object_8"},{"mesh":7,"name":"Object_9"},{"mesh":8,"name":"Object_10"}],"scene":0,"scenes":[{"name":"Sketchfab_Scene","nodes":[0]}]}